<svg version="1.1" id="Layer_1" xmlns="http://www.w3.org/2000/svg" xmlns:xlink="http://www.w3.org/1999/xlink" x="0px" y="0px"
	 width="100%" viewBox="0 0 1024 1024" enable-background="new 0 0 1024 1024" xml:space="preserve">
<path fill="#000000" opacity="1.000000" stroke="none" 
	d="
M878.176270,600.919678 
	C874.335876,618.130737 869.589600,634.562317 860.575317,649.453979 
	C856.210083,656.665344 851.112183,663.147339 843.770996,667.595032 
	C840.144836,669.792053 836.327698,671.362549 832.030701,671.362122 
	C827.676941,671.361694 824.634766,673.151978 822.197144,676.900269 
	C816.722656,685.318359 810.454041,693.118164 801.695190,698.431274 
	C796.000244,701.885803 789.687195,703.270264 783.071045,703.291138 
	C777.690002,703.308167 772.807068,705.068787 768.693054,708.288879 
	C753.344116,720.303223 737.216553,721.366577 720.177002,712.340454 
	C719.295166,711.873352 718.402771,711.421875 717.490479,711.019226 
	C717.215820,710.897888 716.857361,710.966125 716.198120,710.927917 
	C715.973389,719.394348 717.018555,728.037598 712.888367,736.268005 
	C711.879761,728.529419 710.693604,720.934326 705.916260,713.866333 
	C703.847107,717.663574 704.057739,721.525757 703.323669,725.127014 
	C699.102234,745.837830 690.867310,764.131531 672.604248,776.419678 
	C671.264954,777.320801 670.084167,778.634460 667.395569,778.415771 
	C672.130310,768.163391 676.881592,758.132812 677.279053,746.037842 
	C672.982910,751.631470 669.080811,756.766541 665.122131,761.857544 
	C637.743164,797.067139 604.819031,826.220703 567.508606,850.437805 
	C549.109924,862.379822 528.988281,868.861267 506.677582,868.505371 
	C490.253113,868.243286 474.073730,867.353210 458.543121,861.478333 
	C447.057556,857.133545 436.729156,850.686523 427.116882,843.210815 
	C398.585419,821.021057 369.594757,799.354553 343.429504,774.311707 
	C324.765869,756.448547 312.034027,734.711792 303.864075,710.318298 
	C302.421936,706.012451 300.714233,705.086609 296.346710,706.222412 
	C285.942963,708.928162 275.004608,710.377808 264.771301,707.137085 
	C254.645248,703.930298 245.035522,699.618286 234.237122,698.169800 
	C226.701096,697.158936 221.198944,691.136719 216.432220,685.174377 
	C214.768082,683.092834 213.024612,681.034912 211.663055,678.759460 
	C208.889099,674.123352 205.193893,672.002930 199.575012,671.504517 
	C185.884491,670.290161 177.318390,661.117615 170.125778,650.511597 
	C157.800949,632.337646 152.101959,611.564209 147.957718,590.442749 
	C142.527878,562.769165 142.002548,534.897888 147.676498,507.107239 
	C149.890289,496.264160 153.534729,485.922150 159.289871,476.420135 
	C163.689606,469.155975 170.226395,464.448456 177.996674,461.289246 
	C183.830200,458.917450 184.691269,455.214417 180.718063,450.407837 
	C176.796173,445.663300 175.307281,440.013275 175.926788,434.042694 
	C177.453568,419.327850 179.674866,404.704407 182.257904,390.131927 
	C183.846344,381.170624 188.959534,374.975891 196.855682,371.099762 
	C200.305038,369.406555 202.193176,367.021240 203.484512,363.558441 
	C214.258255,334.668030 229.862274,308.672119 250.621582,285.841858 
	C253.003403,283.222412 253.711563,280.868408 252.660217,277.349640 
	C250.295044,269.433594 252.016953,262.600464 257.969788,256.325287 
	C293.969849,218.375732 339.112274,195.320831 386.962097,176.657806 
	C410.482635,167.483994 434.958374,161.680435 459.873627,158.114853 
	C486.127594,154.357681 512.549011,153.752228 539.076904,155.466110 
	C577.135986,157.925034 613.799072,166.286224 649.122742,180.425735 
	C687.721802,195.876297 723.670471,215.979156 755.250061,243.292038 
	C760.764343,248.061295 765.594116,253.681091 770.373047,259.224487 
	C774.878235,264.450470 775.243591,270.776062 773.436218,277.175781 
	C772.485535,280.541809 772.982666,283.020142 775.401794,285.741821 
	C796.310730,309.266083 812.667786,335.578308 823.414795,365.255981 
	C824.117004,367.195282 825.034424,368.940369 827.061462,369.768127 
	C839.650818,374.908783 843.878601,385.304871 845.300232,397.844940 
	C846.497681,408.407898 848.549500,418.871216 849.950623,429.414886 
	C850.998840,437.303467 851.058411,444.995728 844.793701,451.384827 
	C841.540710,454.702454 843.047241,459.985870 847.460266,461.362366 
	C859.605286,465.150574 866.851807,473.903961 871.614807,485.040314 
	C878.154602,500.331024 881.262695,516.362244 882.535278,532.972778 
	C884.280273,555.749878 882.460571,578.170593 878.176270,600.919678 
M591.092834,461.233185 
	C611.204529,466.387817 631.184753,472.006287 650.539673,478.717590 
	C652.926636,476.387329 652.565247,473.968506 652.672668,471.678223 
	C653.140564,461.698608 653.581848,451.717743 654.060608,441.738647 
	C655.692139,407.733612 654.725403,373.864410 648.566467,340.288116 
	C643.668579,313.586243 632.242065,290.440430 611.330688,272.499359 
	C592.566772,256.400635 571.585327,244.021835 548.704102,234.750107 
	C545.685120,233.526779 542.704468,233.001968 539.477722,233.121216 
	C523.505859,233.711533 507.530853,234.489761 491.554352,233.238754 
	C488.836823,233.025970 486.282043,233.441162 483.801147,234.637070 
	C461.690765,245.295197 440.287811,257.088837 421.527679,273.161255 
	C417.839813,276.320831 414.126526,279.450714 409.540527,283.345398 
	C409.215637,278.431152 411.609314,276.229462 413.560852,273.943298 
	C422.489807,263.483276 433.145844,254.941864 444.123322,246.781479 
	C448.986908,243.166000 453.956665,239.693283 459.059692,236.025330 
	C457.026367,234.511459 455.323364,235.213013 453.838531,235.570160 
	C418.604492,244.044846 384.895844,256.082672 355.646698,278.293304 
	C338.010315,291.685699 324.253082,308.043671 317.419037,329.509155 
	C310.296722,351.879974 307.985565,375.063202 306.377655,398.300629 
	C304.962769,418.749054 305.240082,439.259125 305.298065,459.751251 
	C305.302216,461.215759 305.853333,462.974091 303.901184,464.450470 
	C301.776337,459.565125 301.975037,454.746399 301.483459,450.031952 
	C297.769073,414.411469 298.262390,378.913422 304.880768,343.645142 
	C310.090759,315.882111 322.439850,292.123444 344.856628,274.191742 
	C347.555542,272.032837 349.994751,269.549255 352.554321,267.216156 
	C339.442352,273.913239 327.734741,282.310333 317.978882,293.287933 
	C303.042114,310.095276 296.069580,330.440613 292.325775,352.033020 
	C285.356842,392.226929 286.629395,432.573975 291.057312,472.915222 
	C291.405640,476.088654 290.705444,479.627563 293.548004,482.608673 
	C295.763275,481.430908 297.977356,480.329712 300.119141,479.102295 
	C310.822998,472.967773 321.773621,467.335236 333.152191,462.543091 
	C367.021545,448.279022 402.713745,443.831573 439.046265,442.894653 
	C458.880188,442.383179 478.621094,443.909515 498.379700,445.496979 
	C529.491577,447.996552 560.008484,453.796814 591.092834,461.233185 
M337.529846,731.973572 
	C339.148102,734.495667 340.697083,737.065491 342.396179,739.531860 
	C351.303314,752.461731 362.986633,762.621887 375.266541,772.141541 
	C398.700653,790.308167 421.675690,809.124695 447.232971,824.354492 
	C466.922150,836.087280 487.876740,841.710938 510.820526,836.582886 
	C528.460999,832.640198 544.322754,824.550232 559.430176,814.957825 
	C581.168518,801.155212 600.528198,784.292786 619.838501,767.371704 
	C644.164368,746.055542 662.611816,720.929565 671.812805,689.490295 
	C677.578125,669.790527 681.328979,649.733093 683.591553,629.376221 
	C684.534851,620.889038 685.112122,612.361267 685.855835,603.851929 
	C674.367432,619.942688 662.596680,635.130493 645.462341,645.349792 
	C652.697510,634.370239 659.419556,623.186890 663.911499,610.884644 
	C668.349854,598.729126 672.523560,586.447632 672.381775,572.065918 
	C666.591736,576.256531 662.035034,579.862305 657.161743,582.971924 
	C653.986755,584.997864 652.188965,587.478638 651.332520,591.128906 
	C648.007324,605.300415 641.912292,618.159302 632.279053,629.172791 
	C617.886658,645.627380 599.464905,653.664978 577.847107,652.908447 
	C561.750488,652.345154 546.895081,646.747559 533.850342,637.016541 
	C530.266479,634.343079 526.676697,633.368835 522.444336,635.198242 
	C522.794861,638.325684 524.591187,640.403503 525.750122,642.766541 
	C526.525757,644.347900 528.225647,646.073669 526.632446,647.738037 
	C525.179688,649.255798 523.209045,648.244995 521.504639,647.517029 
	C515.572754,644.983459 510.793732,640.814270 506.094543,636.563232 
	C500.502899,631.504883 494.486847,627.025085 487.768646,623.627136 
	C477.327454,618.346252 469.643860,620.744446 463.671295,630.729431 
	C459.534668,637.645081 457.036621,645.250366 454.114746,652.687134 
	C453.260529,654.861328 452.721405,657.558838 449.622192,658.063660 
	C447.129639,655.206055 447.794830,651.965515 448.124451,648.902649 
	C449.106171,639.780884 451.267731,630.901062 453.971100,622.144653 
	C454.585663,620.153992 455.720032,618.103638 453.893738,616.098816 
	C451.185486,615.929260 450.016205,617.812866 448.897583,619.660339 
	C442.650421,629.977417 434.394501,638.440369 424.182312,644.697021 
	C401.803070,658.408020 378.753571,660.997070 355.172302,647.541077 
	C353.751129,646.730164 351.764130,646.233154 351.515869,643.615479 
	C360.508606,644.564148 369.242767,647.534424 378.303009,644.509827 
	C377.263519,642.348389 375.816284,642.138550 374.620483,641.694702 
	C361.137451,636.689575 350.175842,628.337219 341.270905,617.094666 
	C336.154602,610.635315 332.128967,603.598145 328.975067,596.017334 
	C327.996735,593.665649 326.483887,592.046875 323.596069,592.837585 
	C320.744324,593.618347 320.130737,595.684814 320.527679,598.272705 
	C323.763519,619.367859 329.341919,639.599243 342.072632,657.240723 
	C343.438202,659.133057 345.246674,660.980225 345.275787,664.660156 
	C329.994019,654.150452 318.761871,641.108215 309.354553,626.170410 
	C309.004852,627.154236 309.007416,627.928101 309.121552,628.685242 
	C311.726227,645.961426 315.652466,662.969238 319.738190,679.934753 
	C323.988281,697.582520 328.267548,715.246399 337.529846,731.973572 
M481.187317,583.238892 
	C483.465088,584.267029 485.750519,585.278442 488.019409,586.325806 
	C512.109375,597.446716 537.035339,600.982971 562.916870,593.997742 
	C606.477234,582.241211 642.585449,558.465576 672.632935,525.143005 
	C674.909424,522.618347 677.720276,520.376160 678.987427,517.014709 
	C673.596252,513.987671 666.629456,515.588135 660.751770,520.811707 
	C642.282959,537.225159 622.961121,552.495972 601.190308,564.387390 
	C569.411987,581.744934 536.552551,586.721924 501.638672,574.184082 
	C483.563019,567.693054 466.327942,559.379639 448.723419,551.877563 
	C410.323975,535.513794 370.398010,528.897766 329.092010,534.676270 
	C289.525299,540.211426 253.953903,555.790894 223.399628,582.031067 
	C222.016418,583.218994 220.793091,585.086304 217.706772,584.572693 
	C219.531052,578.839233 223.436478,575.070679 227.467819,571.555237 
	C261.923370,541.509583 303.089722,529.203552 347.771454,526.771851 
	C381.600769,524.930908 413.871674,532.235718 445.323639,544.292358 
	C467.076324,552.631042 488.456146,561.994873 510.982422,568.276672 
	C542.295471,577.009033 571.903320,574.362244 599.542969,556.226379 
	C618.234314,543.962097 634.488953,529.065369 648.558594,511.746094 
	C653.858826,505.221680 653.584473,504.386780 645.495361,501.206573 
	C628.136475,494.381927 610.541565,488.221832 592.758057,482.601440 
	C564.164978,473.564728 535.230469,465.733978 505.514709,461.570160 
	C471.443542,456.796112 437.217865,455.780640 402.977142,460.394653 
	C370.308289,464.796814 340.033264,475.646332 312.302643,493.573608 
	C293.528931,505.710449 275.646179,519.035278 258.486450,533.338867 
	C242.599625,546.581299 227.233749,560.339111 214.731659,577.006348 
	C208.210114,585.700562 203.968018,594.978088 205.257523,606.143372 
	C205.543335,608.618042 205.810059,611.065735 208.235443,612.334961 
	C209.900787,611.843201 210.619614,610.667480 211.440186,609.641968 
	C218.667221,600.610291 226.939774,592.618042 236.283646,585.855957 
	C285.592133,550.171509 340.249908,540.017700 399.417786,552.270569 
	C428.037048,558.197144 454.418243,570.203857 481.187317,583.238892 
M355.895142,206.475662 
	C325.841248,221.784882 297.975555,240.165192 273.225983,264.462036 
	C281.943146,267.790802 288.289764,272.784546 293.852509,278.480927 
	C355.478943,219.689835 427.411499,185.794662 513.020081,185.784271 
	C598.801880,185.773865 670.763794,220.170776 732.808289,278.372406 
	C738.531067,272.882629 744.742737,267.988403 752.218018,265.042511 
	C751.134277,262.367065 749.361328,261.058319 747.808228,259.584991 
	C731.767639,244.368179 713.714417,231.872040 694.892395,220.403992 
	C649.010620,192.448746 599.178467,176.342056 545.789001,171.536728 
	C519.704346,169.188965 493.583008,169.946838 467.497406,173.041946 
	C428.555847,177.662430 391.740448,189.080536 355.895142,206.475662 
M853.113098,601.373596 
	C851.158997,608.767456 849.666077,616.323364 846.124329,623.189209 
	C844.618958,626.107361 843.072083,629.882446 839.124573,629.347717 
	C835.316650,628.831848 834.662720,624.901367 833.710388,621.721741 
	C833.615540,621.405029 833.614502,621.061340 833.536804,620.738159 
	C830.376648,607.592590 831.093262,594.260986 832.106628,580.999329 
	C832.441162,576.621582 832.232483,572.078613 834.108398,567.761169 
	C842.267151,548.984131 850.162170,530.092590 858.273010,511.294464 
	C859.515930,508.413971 860.142822,505.577179 859.473206,502.568939 
	C858.276794,497.194580 856.542236,491.956757 854.190979,486.993652 
	C851.332947,480.960968 847.910095,480.731415 843.866394,486.072327 
	C842.866394,487.393066 842.029968,488.850861 841.227966,490.306061 
	C837.119934,497.760529 833.839722,505.587311 830.754395,513.508423 
	C830.119019,515.139587 829.976685,517.413391 827.510193,517.830505 
	C827.287903,517.262939 827.040039,516.946106 827.074341,516.663574 
	C827.234497,515.345886 827.311768,513.986938 827.706726,512.733521 
	C833.886108,493.122833 829.713379,473.896729 825.680908,454.644073 
	C825.009644,451.439270 823.350220,449.951355 820.121094,450.421783 
	C816.319336,450.975616 817.638672,453.597443 818.070129,455.797394 
	C819.802979,464.633820 820.279785,473.611603 821.048767,482.553192 
	C821.289734,485.354858 821.580261,488.271423 820.239075,490.913879 
	C813.225830,504.732330 809.409790,519.561523 806.950378,534.711304 
	C804.636475,548.964783 801.958740,563.261902 804.162537,577.844849 
	C805.516907,586.807190 810.432922,589.502319 818.893494,585.970276 
	C820.939270,585.116272 822.565613,583.134033 824.930481,583.222168 
	C826.587769,585.443542 826.017517,587.680908 826.023865,589.783569 
	C826.068176,604.616028 826.134155,619.440491 831.013855,633.719238 
	C832.424805,637.847656 833.713562,642.848450 838.669250,643.248047 
	C843.586548,643.644470 845.775757,638.999695 847.798523,635.130615 
	C853.499390,624.226379 856.017639,612.370239 858.329346,600.411194 
	C863.531555,573.499695 863.978394,546.566406 859.278015,519.547485 
	C859.450928,546.710938 858.716064,573.801514 853.113098,601.373596 
M670.834900,383.881989 
	C674.817261,414.340668 677.748230,444.902130 679.849731,475.563110 
	C680.968079,452.427307 680.881104,429.319763 679.928650,406.176208 
	C679.147827,387.202057 677.828247,368.320496 674.624207,349.606323 
	C670.461426,325.292114 663.590820,301.936798 649.457214,281.283508 
	C646.887390,277.528229 644.192871,273.858307 641.555969,270.148987 
	C641.864563,269.829346 642.173157,269.509705 642.481750,269.190033 
	C668.339233,280.583282 690.321045,297.936279 712.148987,315.559052 
	C696.268372,292.015839 674.546509,275.240692 650.092102,261.736359 
	C623.188599,246.879562 581.869934,232.321335 572.435059,234.128418 
	C580.776306,239.132401 589.194275,243.833923 597.256104,249.082489 
	C623.878296,266.414490 644.761353,288.641724 656.009155,318.956543 
	C663.697449,339.677673 667.249573,361.329498 670.834900,383.881989 
M773.249451,676.146790 
	C771.363464,671.168823 769.203369,666.275635 767.634705,661.199585 
	C754.781921,619.607056 756.339600,577.495056 763.303711,535.206055 
	C766.992371,512.806824 773.675903,491.192627 780.382751,469.577209 
	C782.698975,462.112427 784.944275,454.598938 784.885315,446.647095 
	C784.867249,444.208466 784.113770,442.564026 781.390137,442.033051 
	C778.506897,441.470978 778.032715,443.394531 777.351807,445.310272 
	C762.806274,486.230896 751.719421,527.810852 749.843567,571.593628 
	C748.803528,595.866394 750.084045,619.838745 754.572998,643.589172 
	C757.067078,656.785156 760.249146,670.004700 768.116699,681.407837 
	C769.354065,683.201294 770.550781,684.990234 772.621155,685.959839 
	C773.736267,686.481995 774.824707,686.811707 775.886414,685.935852 
	C777.003357,685.014587 776.748718,683.832886 776.280762,682.735779 
	C775.431946,680.745728 774.484680,678.797607 773.249451,676.146790 
M183.796951,560.324158 
	C181.139923,532.757019 182.122940,505.177032 184.867584,477.500488 
	C180.702271,477.585602 178.992661,479.471405 177.315414,481.292664 
	C173.079468,485.892365 170.211761,491.305908 168.024658,497.129120 
	C160.051147,518.358704 158.958939,540.282288 161.677429,562.515625 
	C162.092972,565.914062 161.575684,569.818420 164.675323,573.348755 
	C167.207932,564.353821 165.558258,555.361267 168.326950,546.332520 
	C170.919830,550.121277 170.598969,553.902588 171.265411,557.373413 
	C173.584961,569.453308 175.425323,581.651001 180.569595,592.981567 
	C182.201111,596.575134 184.005630,600.100098 188.610657,602.296509 
	C186.981308,588.136047 185.434280,574.691223 183.796951,560.324158 
M744.759094,459.327820 
	C748.229675,453.578156 751.700256,447.828491 755.699036,441.203705 
	C750.961975,442.163818 748.491272,444.666290 745.989075,446.948181 
	C732.297668,459.433868 725.650269,475.883850 720.240967,493.020477 
	C712.048401,518.974976 709.751160,545.874817 708.568542,572.778137 
	C707.412720,599.072571 708.791870,625.369812 714.356262,651.254822 
	C716.458496,661.034180 719.101257,670.643250 724.319824,679.341431 
	C717.919739,664.465576 715.503662,648.804626 714.353516,632.791992 
	C714.035828,628.368652 715.614502,627.578125 719.243469,627.682251 
	C724.194214,627.824219 729.066040,627.364624 734.397217,625.007874 
	C728.834717,622.110474 723.553833,622.092285 718.305054,622.378723 
	C714.344910,622.594849 713.524719,620.615479 713.582886,617.216187 
	C713.640015,613.876038 713.361572,610.714172 718.222351,610.896912 
	C721.232544,611.010193 724.325623,611.106140 727.751343,609.666443 
	C724.003906,607.549011 720.616638,608.225891 717.345581,608.205444 
	C714.713867,608.188965 713.223755,607.263245 713.289001,604.438171 
	C713.615479,590.295044 714.118042,576.163757 715.841919,562.104370 
	C716.171448,559.416870 717.492004,558.004395 720.308411,557.675232 
	C723.464355,557.306396 726.798340,557.467957 730.025818,555.672302 
	C727.264832,553.168213 724.158630,553.446838 721.261658,553.121643 
	C718.467163,552.808044 716.969543,551.770691 717.633362,548.614136 
	C718.658936,543.737671 719.631104,538.840149 720.341614,533.910583 
	C720.845337,530.415894 722.833679,529.216919 726.053833,528.917725 
	C728.939148,528.649780 732.058350,529.194641 734.755432,527.024841 
	C732.939392,524.159363 729.836365,523.997742 727.262817,523.728882 
	C722.904053,523.273621 722.499023,521.303955 723.620605,517.722229 
	C724.812378,513.916199 725.784729,510.027130 726.598633,506.121307 
	C727.355164,502.490631 729.199036,500.553680 733.063293,500.654205 
	C734.740662,500.697845 736.644592,500.818665 737.868774,498.667816 
	C736.852905,498.180908 736.155334,497.699036 735.384827,497.500641 
	C729.266541,495.925110 729.216797,495.926910 731.099121,490.104553 
	C734.493408,479.605743 739.247437,469.701172 744.759094,459.327820 
M791.208923,472.503021 
	C789.364746,478.369232 787.516785,484.234222 785.677124,490.101807 
	C780.049988,508.049500 775.793884,526.320435 773.393433,544.973694 
	C772.573792,551.343506 774.932678,555.470154 778.930298,555.640808 
	C784.338257,555.871826 785.682678,551.512695 786.693787,547.436035 
	C789.291992,536.960327 791.729248,526.443726 794.129761,515.920349 
	C798.043091,498.764435 803.973816,482.070892 806.217957,464.543610 
	C807.083313,457.784790 806.104919,451.224457 800.692871,446.213837 
	C799.598938,445.201019 798.237976,444.184875 796.665222,444.779663 
	C794.903748,445.445770 795.251892,447.224762 795.218628,448.681030 
	C795.039246,456.543243 793.666809,464.203033 791.208923,472.503021 
M249.628418,362.100830 
	C248.426361,365.027649 247.266357,367.972717 246.007904,370.875061 
	C245.124268,372.912964 245.154068,374.693054 246.838104,376.348602 
	C255.687607,385.048584 257.215240,395.465912 254.659241,407.207855 
	C253.635117,411.912476 252.066849,416.730957 252.657593,421.919983 
	C254.167694,421.919983 255.321350,421.825623 256.455017,421.936188 
	C261.549377,422.433105 263.091125,420.061310 262.843262,415.159058 
	C262.618195,410.707428 263.441681,406.212524 263.613647,401.729431 
	C264.589142,376.303772 268.274811,351.403412 277.759460,327.605103 
	C278.506104,325.731781 279.541779,323.751831 277.041779,322.394012 
	C274.397644,320.957916 273.477844,323.337006 272.386871,324.830048 
	C263.919983,336.417114 256.188751,348.462036 249.628418,362.100830 
M764.359619,419.781342 
	C766.528992,422.959381 769.950928,422.202271 772.412109,421.257141 
	C775.002869,420.262268 772.915710,417.454529 772.757385,415.442627 
	C772.679321,414.451324 772.526733,413.447601 772.256287,412.492432 
	C768.477783,399.147736 767.868286,386.466858 779.481934,376.157593 
	C781.029541,374.783752 780.826843,372.932770 780.062927,371.066040 
	C773.147522,354.165863 764.370789,338.344147 753.026978,323.985535 
	C751.631104,322.218689 750.312317,321.178589 748.018799,322.606781 
	C745.656494,324.077789 746.345642,325.827942 747.109253,327.797272 
	C749.214478,333.226196 751.461243,338.614960 753.247925,344.150085 
	C761.092407,368.452332 763.400818,393.588745 764.359619,419.781342 
M797.266541,398.453430 
	C798.141235,403.855072 798.902710,409.278931 799.956238,414.645447 
	C800.292969,416.360809 799.639832,419.574066 802.502258,419.192505 
	C805.830872,418.748779 804.633789,415.582550 804.388489,413.443237 
	C803.651367,407.013977 802.659302,400.614075 801.910400,394.185974 
	C801.700500,392.384247 800.847290,390.152466 803.542969,389.065430 
	C805.908203,390.209137 805.865479,392.585022 806.248474,394.572601 
	C807.409668,400.598511 808.276428,406.681549 809.459534,412.702667 
	C809.843384,414.656281 809.681396,417.585785 812.676270,417.576843 
	C819.754272,417.555725 826.347778,419.511749 833.384094,422.556671 
	C832.077454,413.310394 830.847839,404.812469 829.682312,396.305725 
	C828.487915,387.588348 826.264160,384.964111 817.730469,382.832367 
	C812.982300,381.646271 808.150269,381.648224 803.411621,382.876923 
	C796.303101,384.720062 795.195007,386.522064 796.383606,393.690430 
	C796.600769,394.999695 796.904175,396.294708 797.266541,398.453430 
M221.090652,389.615601 
	C225.624664,388.439026 224.155045,391.903717 223.976562,393.725342 
	C223.280350,400.831055 222.286880,407.907288 221.450500,414.999969 
	C221.255188,416.656097 221.008926,418.604797 223.170746,419.120514 
	C225.802765,419.748322 225.585068,417.441101 225.832932,415.943817 
	C227.187775,407.759399 228.143555,399.493317 229.885696,391.394928 
	C230.823044,387.037659 228.980835,385.031891 225.572525,383.794495 
	C218.615372,381.268646 211.533508,381.138550 204.595383,383.842682 
	C200.194641,385.557892 196.898956,388.264221 196.898041,393.698395 
	C196.897614,396.148926 195.840195,398.583160 195.670105,401.052887 
	C195.198212,407.903961 192.715439,414.586029 193.491623,421.998749 
	C199.484573,420.039429 204.819229,417.292999 210.758606,417.771362 
	C215.011841,418.113953 216.273621,416.004700 216.677200,412.311096 
	C217.488297,404.888000 218.565216,397.498413 221.090652,389.615601 
M227.543564,471.181702 
	C229.118240,460.800201 233.289993,451.334900 238.766052,441.725677 
	C231.782578,442.186920 227.741470,445.639130 224.608978,450.367798 
	C219.929398,457.431824 217.744476,465.407562 216.280106,473.655579 
	C212.418442,495.406158 213.172272,517.353088 213.386765,539.277710 
	C213.402206,540.854553 213.200226,542.615845 214.810989,543.667603 
	C222.455017,539.017212 222.643448,531.591248 222.573730,523.974182 
	C222.413757,506.496094 223.548782,489.126038 227.543564,471.181702 
M502.398468,201.117676 
	C496.734436,201.546631 491.173645,202.587296 485.852448,204.549515 
	C482.361633,205.836792 478.742096,207.556305 479.430969,212.220779 
	C480.057220,216.461197 483.842957,216.646881 487.108459,217.211655 
	C488.245422,217.408279 489.431732,217.497467 490.580719,217.419144 
	C502.024811,216.639130 513.449585,215.596054 524.939087,215.540497 
	C528.911804,215.521301 532.920410,215.161407 536.839722,214.514740 
	C539.614380,214.056931 541.652710,212.294922 541.925232,209.147202 
	C542.196838,206.011307 540.606750,204.111740 537.842407,203.045731 
	C536.295227,202.449112 534.731812,201.733994 533.114563,201.505981 
	C523.200867,200.108154 513.256409,199.625641 502.398468,201.117676 
M200.860916,510.594574 
	C201.869110,491.067749 201.763992,471.398651 209.128586,452.263275 
	C205.330276,452.948975 203.809555,455.049164 202.561783,457.396942 
	C200.209686,461.822662 198.267548,466.449188 197.357925,471.377106 
	C192.278046,498.897888 192.423843,526.605713 194.864944,554.346802 
	C195.231323,558.510437 194.606934,562.999207 197.238968,567.153564 
	C200.737930,563.637573 203.185074,560.165100 202.665833,554.903687 
	C201.244675,540.502991 200.738388,526.045898 200.860916,510.594574 
M257.432129,299.919861 
	C242.286499,318.048157 229.920364,337.852234 221.385483,359.943268 
	C220.553009,362.097992 218.719574,364.747314 222.478531,366.161743 
	C225.659271,367.358551 227.719101,366.430847 229.126526,363.108826 
	C239.278122,339.147369 253.208206,317.600525 270.810333,298.422302 
	C272.312256,296.785919 274.493927,295.043121 271.630585,292.642120 
	C269.230103,290.629272 266.955505,289.465851 264.377472,292.471619 
	C262.323395,294.866516 260.050446,297.073639 257.432129,299.919861 
M772.199341,304.291443 
	C768.640259,300.325439 765.097778,296.344360 761.516113,292.398834 
	C759.215210,289.864258 756.872375,290.275330 754.608826,292.471405 
	C752.254272,294.755829 753.600891,296.647217 755.305725,298.479797 
	C772.838806,317.327087 786.609985,338.612976 796.809753,362.243469 
	C799.155884,367.678925 801.170654,368.069153 806.455017,364.413147 
	C798.765198,342.567627 787.057373,322.948090 772.199341,304.291443 
M776.795349,601.380066 
	C776.761292,598.051880 776.696838,594.723633 776.706665,591.395569 
	C776.711182,589.855774 777.041504,588.614014 778.766724,587.827209 
	C786.437378,584.328796 788.156616,580.913818 786.720642,572.862854 
	C786.098755,569.375916 783.781250,567.773376 780.588928,567.226379 
	C777.763672,566.742310 774.826904,566.433411 772.906128,569.274231 
	C770.726440,572.497986 770.635132,583.418091 773.316956,586.105286 
	C776.062805,588.856628 776.185730,591.870850 776.079956,595.241394 
	C775.588623,610.900330 775.929810,626.521912 779.348267,641.888977 
	C781.584961,651.943604 783.773071,662.106445 789.797546,670.767517 
	C793.429749,675.989380 796.272461,675.742554 800.004211,670.179016 
	C792.143799,664.930603 788.239502,657.013306 785.315186,648.348633 
	C780.271667,633.405212 778.709717,617.846863 776.795349,601.380066 
M242.472153,470.019897 
	C239.379654,483.795441 236.809097,497.631836 237.902649,512.294495 
	C237.477081,503.957825 243.484253,502.951630 249.205353,501.399475 
	C246.652405,500.848785 244.099457,500.298096 241.483154,499.733734 
	C241.192673,489.926758 244.187515,483.281311 256.012024,484.343384 
	C253.037750,480.449341 249.042389,481.458710 245.963303,479.184448 
	C246.707993,476.349060 246.801529,473.191528 249.069656,470.712982 
	C249.681732,470.044098 251.188797,469.754913 250.464706,468.512146 
	C248.635818,465.373169 250.614548,462.687653 251.386200,459.928894 
	C252.554733,455.751251 254.083115,451.674194 255.458603,447.554382 
	C248.521698,453.381165 245.498001,461.251434 242.472153,470.019897 
M223.195892,664.340820 
	C226.517838,669.961060 229.513702,675.882202 237.020599,679.296204 
	C229.251404,665.317139 223.523453,651.699829 218.614594,637.732117 
	C217.341446,634.109497 214.758957,633.711670 210.900543,634.512634 
	C214.227859,644.726135 217.697433,654.537842 223.195892,664.340820 
M259.857697,624.445679 
	C264.802979,644.395203 270.551666,663.977295 284.999146,679.591492 
	C275.359375,661.011475 268.876038,641.261108 263.929443,621.157166 
	C261.374847,621.223694 259.780518,621.472473 259.857697,624.445679 
M246.784683,650.590942 
	C250.173645,650.760559 253.179367,650.098816 255.596603,646.619080 
	C249.853470,644.425415 244.967514,644.927734 239.999542,647.803894 
	C241.735092,649.910217 244.043457,649.820190 246.784683,650.590942 
M242.432419,636.632385 
	C244.879333,636.427673 247.139069,635.793152 249.171738,634.041992 
	C245.146378,631.762390 242.446625,632.049316 237.157791,635.187134 
	C238.506027,636.412231 240.057693,636.636353 242.432419,636.632385 
M250.285629,658.580383 
	C248.893509,659.578186 249.598618,660.235718 250.745193,660.412415 
	C252.819382,660.732056 254.760529,660.163208 257.062286,659.156799 
	C254.720383,657.865662 252.780670,658.371338 250.285629,658.580383 
z"/>
<path fill="#000000" opacity="1.000000" stroke="none" 
	d="
M441.366699,765.521667 
	C438.451508,766.083069 436.039398,767.715454 433.257660,766.466187 
	C432.815125,763.227234 435.557129,762.567566 437.339905,761.434082 
	C454.222198,750.701294 472.979645,744.963867 492.499023,741.794983 
	C511.613586,738.691772 530.907227,737.827393 550.257629,739.522217 
	C555.663879,739.995728 560.834045,739.647949 565.538269,736.312439 
	C568.744507,734.039001 572.562500,733.350403 576.514709,733.734009 
	C581.282288,734.196716 584.369690,737.394775 584.326843,741.825012 
	C584.285461,746.102539 582.102600,748.006775 576.631165,748.334412 
	C559.190735,749.378845 541.726624,750.108765 524.310608,751.461060 
	C496.391174,753.628967 468.726837,757.517700 441.366699,765.521667 
z"/>
<path fill="#000000" opacity="1.000000" stroke="none" 
	d="
M511.508667,704.538818 
	C506.214264,707.187622 501.932404,710.632507 497.898132,714.372009 
	C491.864655,719.964600 485.002930,721.562012 477.126953,719.229553 
	C464.947845,715.622681 454.040924,709.799988 444.994751,700.787109 
	C441.161652,696.968079 438.387482,692.415283 437.045105,687.135010 
	C436.522461,685.079102 435.940247,682.630920 438.200134,681.223877 
	C440.440552,679.828918 442.427399,681.241760 443.990906,682.768311 
	C447.806091,686.493408 451.687531,690.076965 456.163422,693.055115 
	C466.339996,699.826294 476.703827,701.804138 488.116272,695.966125 
	C495.395142,692.242676 503.241150,689.967468 511.455261,689.106567 
	C514.167480,688.822205 516.765137,689.093201 519.369385,689.692993 
	C521.608276,690.208618 523.463684,691.307983 524.018127,693.691040 
	C524.579163,696.102539 523.218323,697.846558 521.543762,699.331909 
	C518.736877,701.821533 515.002869,702.555237 511.508667,704.538818 
z"/>
<path fill="#000000" opacity="1.000000" stroke="none" 
	d="
M512.005188,781.266968 
	C500.918701,784.897217 490.164490,785.563538 479.344879,781.911560 
	C478.089386,781.487793 476.819000,781.041382 475.660706,780.411926 
	C473.843201,779.424194 472.222748,778.096558 472.688812,775.732056 
	C473.167023,773.306091 475.210480,772.864990 477.281525,772.733887 
	C488.220123,772.041199 499.156036,771.286011 510.102356,770.743408 
	C514.868591,770.507141 519.598816,768.870728 525.328125,770.396057 
	C522.670837,776.380066 517.831787,779.105347 512.005188,781.266968 
z"/>
<path fill="#000000" opacity="1.000000" stroke="none" 
	d="
M728.721191,268.323303 
	C713.147095,253.898987 696.931519,240.896042 679.052673,230.052490 
	C678.341553,229.621216 677.612732,229.195129 676.982300,228.660355 
	C675.834839,227.687134 674.492981,226.616470 675.499695,224.911392 
	C676.472473,223.263931 678.059326,223.582596 679.468933,224.307510 
	C682.577698,225.906281 685.720520,227.462921 688.706055,229.273254 
	C705.302734,239.336929 720.524841,251.177795 734.049255,265.111115 
	C735.844604,266.960754 740.088562,269.213165 737.045959,272.199860 
	C734.112183,275.079559 732.015808,270.780060 729.717651,269.245087 
	C729.444763,269.062775 729.231201,268.791565 728.721191,268.323303 
z"/>
<path fill="#000000" opacity="1.000000" stroke="none" 
	d="
M332.634979,239.673904 
	C320.062622,248.254883 308.864319,257.966827 297.741913,267.774139 
	C295.993011,269.316223 294.203979,270.813934 292.404785,272.297363 
	C291.224487,273.270508 290.001984,273.342255 288.808350,272.272888 
	C287.483307,271.085724 287.921906,269.927856 288.874481,268.793762 
	C289.410004,268.156189 289.958954,267.527466 290.535828,266.927368 
	C306.231842,250.599197 323.990723,236.920975 343.607819,225.631561 
	C343.752167,225.548508 343.895447,225.453888 344.051666,225.402740 
	C346.077087,224.739929 348.415253,222.058044 350.107605,225.035767 
	C351.558594,227.588791 348.602020,228.660294 346.927429,229.839844 
	C342.298035,233.100723 337.600006,236.264145 332.634979,239.673904 
z"/>
</svg>